<svg xmlns="http://www.w3.org/2000/svg" width="256" height="256"><path fill-opacity=".016" d="M0 128.004v128.004l128.25-.254 128.25-.254.254-127.75L257.008 0H0v128.004m.485.496c0 70.4.119 99.053.265 63.672.146-35.38.146-92.98 0-128C.604 29.153.485 58.1.485 128.5" fill="#1976D2" fill-rule="evenodd"/><path fill-opacity=".123" d="M127.136 1.54c-53.159 9.332-96.025 52.669-104.64 105.788-12.579 77.555 47.78 148.76 126.004 148.648 17.571-.025 32.512-2.823 48.067-9.003 6.735-2.675 23.433-11.578 23.433-12.494 0-.19-4.572-7.463-10.159-16.162a43053.663 43053.663 0 0 1-10.288-16.021c-.07-.112-4.611 2.022-10.09 4.744-27.717 13.765-58.273 12.99-85.185-2.161-10.171-5.726-25.352-20.601-31.225-30.595-17.249-29.352-17.249-63.216 0-92.568 5.873-9.994 21.054-24.869 31.225-30.595 26.167-14.731 57.033-15.854 83.511-3.038 4.618 2.235 8.534 3.919 8.7 3.741.893-.953 20.511-31.747 20.511-32.195 0-1.036-12.634-7.472-21.712-11.059C180.613 2.771 170.833.943 152 .478 140.32.19 133.056.5 127.136 1.54m24.209 52.433c.36 1.803.655 7.046.655 11.652V74l5.25.015c28.327.08 52.795 24.877 52.735 53.445-.032 15.205-5.28 27.888-15.958 38.567-16.366 16.365-39.293 20.469-60.919 10.903-8.621-3.814-18.646-12.897-23.635-21.417-.939-1.602-1.916-1.309-11.25 3.375C92.6 161.71 88 164.264 88 164.564c0 .3 1.882 3.334 4.183 6.741 8.558 12.674 20.981 22.628 35.403 28.363 11.009 4.379 19.518 5.698 32.833 5.091 19.65-.896 35.933-8.156 50.049-22.315 15.545-15.591 22.476-32.534 22.515-55.034.069-40.585-31.459-73.984-71.888-76.154l-10.406-.559.656 3.276M106.806 99.04c-2.542 2.542-2.939 3.566-2.424 6.25.847 4.415 5.11 8.042 8.509 7.24 2.557-.603 6.109-3.883 6.109-5.641 0-1.222-4.735-1.127-5.5.111-1.163 1.882-3.461 1.002-4.108-1.573-.868-3.461.964-5.31 3.619-3.652 2.4 1.498 5.989 1.606 5.989.18 0-1.854-4.843-5.955-7.031-5.955-1.168 0-3.491 1.368-5.163 3.04m17.489-1.838c-.567.714-1.83 3.773-2.808 6.798-.978 3.025-1.986 6.063-2.24 6.75-.294.798.481 1.25 2.146 1.25 1.434 0 2.607-.45 2.607-1s1.125-1 2.5-1 2.5.45 2.5 1 1.125 1 2.5 1c3.052 0 3.052.028.163-8.555-1.749-5.196-2.842-7.02-4.338-7.243-1.1-.164-2.464.286-3.03 1m12.31.097c-2.487 1.819-1.785 6.817 1.163 8.279 3.472 1.721 3.503 2.115.126 1.62-2.585-.38-3.032-.152-2.735 1.39.195 1.014 1.538 2.507 2.983 3.318 2.355 1.322 2.899 1.297 5.243-.239 3.265-2.139 3.451-5.968.392-8.11L141.555 102h2.222c2.695 0 2.885-2.091.394-4.345-2.196-1.987-5.145-2.126-7.566-.356m11.096-.667c-.385.386-.701 4.001-.701 8.035 0 7.155.061 7.333 2.5 7.333 2.111 0 2.5-.467 2.5-3 0-2.333.444-3 2-3s2 .667 2 3 .444 3 2 3c1.833 0 2-.667 2-8s-.167-8-2-8c-1.556 0-2 .667-2 3 0 2.299-.452 3-1.934 3-1.364 0-2.026-.807-2.25-2.741-.302-2.621-2.633-4.109-4.115-2.627M126 104.5c0 .825.436 1.5.969 1.5.532 0 .709-.675.393-1.5-.317-.825-.753-1.5-.969-1.5-.216 0-.393.675-.393 1.5m-19.443 20.723c-2.187 3.121-1.971 8.363.443 10.777 2.499 2.499 7.161 2.584 9.345.171 2.688-2.97 2.121-4.23-1.358-3.017-4.202 1.465-6.192.471-5.804-2.898.296-2.576.595-2.738 4.567-2.488 4.616.291 5.263-.541 2.421-3.113-2.681-2.427-7.725-2.129-9.614.568M122 125c-2.633 2.633-2.614 7.964.039 10.811 4.407 4.731 11.961 1.258 11.961-5.5 0-4.171-3.007-7.311-7-7.311-1.667 0-3.889.889-5 2m14 5.5c0 6.756.193 7.5 1.94 7.5 1.519 0 2.006-.812 2.25-3.75l.31-3.75 2.332 3.75c1.38 2.22 3.114 3.75 4.25 3.75 1.72 0 1.918-.773 1.918-7.5 0-6.756-.193-7.5-1.94-7.5-1.519 0-2.006.812-2.25 3.75l-.31 3.75-2.332-3.75c-1.38-2.22-3.114-3.75-4.25-3.75-1.72 0-1.918.773-1.918 7.5m15 0c0 6.756.193 7.5 1.94 7.5 1.519 0 2.006-.812 2.25-3.75l.31-3.75 2.332 3.75c1.38 2.22 3.114 3.75 4.25 3.75 1.72 0 1.918-.773 1.918-7.5 0-6.756-.193-7.5-1.94-7.5-1.519 0-2.006.812-2.25 3.75l-.31 3.75-2.216-3.75c-1.405-2.378-2.961-3.75-4.25-3.75-1.864 0-2.034.625-2.034 7.5m15 0v7.5h4.5c3.333 0 4.5-.389 4.5-1.5 0-.933-.944-1.5-2.5-1.5-3.108 0-3.389-2.73-.328-3.18 3.201-.472 3.544-2.82.411-2.82-1.629 0-2.583-.554-2.583-1.5 0-.933.944-1.5 2.5-1.5s2.5-.567 2.5-1.5c0-1.111-1.167-1.5-4.5-1.5H166v7.5m12.655-5.671c-2.323 2.566-2.133 8.693.345 11.171 2.499 2.499 7.161 2.584 9.345.171 2.519-2.783 2.04-3.335-2.595-2.988-4.17.311-4.256.254-4.573-3.057l-.322-3.375 4.572.686c4.894.734 5.712-.096 2.744-2.782-2.427-2.197-7.454-2.105-9.516.174M191 124.5c0 .833.889 1.5 2 1.5 1.778 0 2 .667 2 6s.222 6 2 6 2-.667 2-6 .222-6 2-6c1.111 0 2-.667 2-1.5 0-1.167-1.333-1.5-6-1.5s-6 .333-6 1.5m-66.589 3.871c-1.112 2.897.021 5.129 2.603 5.129 2.096 0 2.486-.471 2.486-3 0-2.352-.487-3.069-2.254-3.32-1.323-.188-2.495.305-2.835 1.191" fill="#1976D2" fill-rule="evenodd"/><path fill-opacity=".496" d="M131 1.416C60.571 12.499 12.554 76.244 22.468 145.5c11.781 82.294 97.338 132.021 173.969 101.111 9.378-3.783 22.563-11.109 22.563-12.537 0-.46-4.257-7.428-9.459-15.485-5.202-8.056-9.717-15.065-10.033-15.575-.315-.511-2.677.405-5.248 2.036-6.482 4.111-18.21 8.474-28.244 10.507-11.144 2.258-30.171 1.534-41.008-1.559-29.825-8.515-53.588-32.387-62.212-62.498-1.945-6.793-2.291-10.338-2.291-23.5s.346-16.707 2.291-23.5c8.69-30.344 32.333-53.959 62.746-62.672 6.724-1.926 10.36-2.283 23.458-2.302 17.825-.024 26.138 1.761 39.54 8.494l7.597 3.817 6.251-9.669c3.438-5.317 8.108-12.59 10.377-16.161l4.125-6.493-5.695-3.255c-8.617-4.926-24.513-10.824-35.695-13.246C162.879.279 142.804-.441 131 1.416m-24.443 97.807c-3.687 5.263-.577 12.777 5.288 12.777 2.836 0 6.155-2.604 6.155-4.829 0-1.497-3.248-1.523-4.733-.038-1.938 1.938-4.436.179-4.084-2.877.296-2.576.595-2.738 4.567-2.488 4.497.284 5.255-.621 2.679-3.197-2.391-2.39-8.001-2.02-9.872.652m15.121 5.221L119.137 112h2.432c1.337 0 2.431-.45 2.431-1s1.098-1 2.441-1c1.343 0 2.719.45 3.059 1 .34.55 1.522 1 2.626 1 2.185 0 2.227.362-1.111-9.5-1.377-4.066-2.17-5.057-4.245-5.306-2.355-.282-2.747.275-5.092 7.25m14.333-5.957c-1.98 2.386-.41 6.178 3.058 7.387 1.851.645 2.806 1.519 2.393 2.187-.495.802-.992.809-1.775.026-1.508-1.508-4.687-1.364-4.687.213 0 2.19 2.244 3.7 5.5 3.7 6.399 0 7.767-5.951 2-8.701-4.522-2.157-4.47-3.331.115-2.587 3.453.561 3.564.49 2.465-1.562-1.375-2.57-7.137-2.991-9.069-.663M147 104.5c0 6.747.194 7.5 1.934 7.5 1.366 0 2.026-.807 2.25-2.75.226-1.969.955-2.841 2.566-3.07 1.914-.271 2.25.139 2.25 2.75 0 2.403.434 3.07 2 3.07 1.822 0 2-.667 2-7.5s-.178-7.5-2-7.5c-1.441 0-2 .667-2 2.383 0 1.519-.705 2.568-1.942 2.892-2.422.633-3.058.021-3.058-2.942 0-1.666-.571-2.333-2-2.333-1.822 0-2 .667-2 7.5m-21-.059c0 .857.45 1.559 1 1.559s1-.423 1-.941-.45-1.219-1-1.559c-.55-.34-1 .084-1 .941" fill="#1976D2" fill-rule="evenodd"/><path fill-opacity=".378" d="M133.384 1.5C99.042 6.682 70.322 22.555 50.467 47.326 34.019 67.848 25.29 89.274 21.981 117.25c-2.767 23.384 3.983 52.693 17.391 75.515C58.233 224.87 90.01 246.701 128 253.653c25.062 4.586 57.031-.518 79.963-12.766 12.685-6.775 12.483-4.617 1.971-21.04-5.05-7.891-9.638-14.917-10.194-15.613-.793-.993-1.968-.704-5.459 1.342-23.482 13.761-54.69 15.802-79.647 5.208-21.232-9.013-39.521-27.295-48.435-48.418-8.97-21.254-8.963-47.576.017-68.732 20.345-47.928 75.855-68.725 122.566-45.919 4.005 1.955 7.41 3.382 7.567 3.17 2.87-3.873 19.823-31.044 19.542-31.321-.215-.212-3.766-2.202-7.891-4.422C187.041 3.859 155.711-1.868 133.384 1.5m-25.811 97.07c-2.016 2.016-2.936 5.711-2.087 8.384.961 3.03 5.013 5.388 7.978 4.644 3.013-.756 5.524-4.598 3.005-4.598-.88 0-2.44.449-3.465.998-1.378.738-2.275.588-3.435-.571-1.992-1.993-1.992-3.862.002-5.856 1.858-1.857 2.651-1.949 4.123-.477.601.601 1.924.934 2.938.738 1.714-.33 1.686-.514-.393-2.593-2.61-2.61-6.43-2.905-8.666-.669m16.906-.32c-1.167 3.189-4.479 13.1-4.479 13.407 0 1.096 3.159.091 3.638-1.157.317-.825 1.667-1.5 3-1.5 1.334 0 2.684.675 3 1.5.565 1.472 3.362 2.155 3.362.821 0-.374-.989-3.749-2.197-7.5-1.659-5.151-2.646-6.821-4.031-6.821-1.009 0-2.041.563-2.293 1.25m12.092.321c-2.435 2.436-1.884 4.312 1.929 6.562 4.597 2.712 4.488 4.139-.25 3.271l-3.75-.687 1.905 2.142c2.43 2.731 6.06 2.743 7.963.026 1.879-2.683 1.153-4.564-2.489-6.448-3.833-1.982-3.759-3.789.121-2.937 3.125.686 3.855-.245 1.8-2.3-1.683-1.683-5.364-1.494-7.229.371M148 104.5c0 6 .3 7.5 1.5 7.5 1 0 1.5-1 1.5-3 0-2.533.389-3 2.5-3 2.111 0 2.5.467 2.5 3 0 2.333.444 3 2 3 1.822 0 2-.667 2-7.5s-.178-7.5-2-7.5c-1.556 0-2 .667-2 3 0 2.533-.389 3-2.5 3-2.111 0-2.5-.467-2.5-3 0-2-.5-3-1.5-3-1.2 0-1.5 1.5-1.5 7.5m-22.395-.912c-.958 2.496-.718 3.412.895 3.412.825 0 1.5-.873 1.5-1.941 0-2.515-1.614-3.507-2.395-1.471" fill="#1976D2" fill-rule="evenodd"/></svg>